PathFileType	4	(X/Y/Z)	subject01_walk1.trc																																																																																																																									
DataRate	CameraRate	NumFrames	NumMarkers	Units	OrigDataRate	OrigDataStartFrame	OrigNumFrames																																																																																																																					
60	60	9	41	mm	60	95	151																																																																																																																					
Frame#	Time	R.ASIS			L.ASIS			V.Sacral			R.Thigh.Upper			R.Thigh.Front			R.Thigh.Rear			L.Thigh.Upper			L.Thigh.Front			L.Thigh.Rear			R.Shank.Upper			R.Shank.Front			R.Shank.Rear			L.Shank.Upper			L.Shank.Front			L.Shank.Rear			R.Heel			R.Midfoot.Sup			R.Midfoot.Lat			R.Toe.Tip			L.Heel			L.Midfoot.Sup			L.Midfoot.Lat			L.Toe.Tip			Sternum			R.Acromium			L.Acromium			R.Bicep			L.Bicep			R.Elbow			L.Elbow			R.Wrist.Med			R.Wrist.Lat			L.Wrist.Med			L.Wrist.Lat			R.Toe.Lat			R.Toe.Med			L.Toe.Lat			L.Toe.Med			R.Temple			L.Temple			Top.Head		
		X1	Y1	Z1	X2	Y2	Z2	X3	Y3	Z3	X4	Y4	Z4	X5	Y5	Z5	X6	Y6	Z6	X7	Y7	Z7	X8	Y8	Z8	X9	Y9	Z9	X10	Y10	Z10	X11	Y11	Z11	X12	Y12	Z12	X13	Y13	Z13	X14	Y14	Z14	X15	Y15	Z15	X16	Y16	Z16	X17	Y17	Z17	X18	Y18	Z18	X19	Y19	Z19	X20	Y20	Z20	X21	Y21	Z21	X22	Y22	Z22	X23	Y23	Z23	X24	Y24	Z24	X25	Y25	Z25	X26	Y26	Z26	X27	Y27	Z27	X28	Y28	Z28	X29	Y29	Z29	X30	Y30	Z30	X31	Y31	Z31	X32	Y32	Z32	X33	Y33	Z33	X34	Y34	Z34	X35	Y35	Z35	X36	Y36	Z36	X37	Y37	Z37	X38	Y38	Z38	X39	Y39	Z39	X40	Y40	Z40	X41	Y41	Z41
																																																																																																																												
95	1.567	609.98077	1088.59631	125.74184	621.70422	1070.22192	-133.56346	418.27646	1072.71777	-0.71381	631.468	787.023	200.952	724.253	746.203	124.286	664.12	669.775	202.338	577.161	759.706	-176.217	668.413	730.867	-109.666	581.194	651.652	-154.65	608.7301	527.61438	184.07495	648.02344	446.44858	142.72223	561.68976	454.78696	190.96411	564.04315	439.02496	-141.22365	607.90729	389.51105	-85.46193	542.90637	396.54846	-147.30048	311.44067	279.89679	82.90804	421.68121	181.43964	77.40331	384.44928	181.68794	176.12465	495.02328	63.46482	136.08023	456.72952	76.49266	-44.58138	627.0116	75.60813	-13.04756	612.52698	68.56804	-110.75179	738.63605	49.99414	-41.55209	634.90985	1388.3363	-19.72444	520.24548	1483.0647	179.64191	580.19299	1490.73718	-234.92126	514.21661	1286.16235	235.86967	624.66095	1253.20337	-250.62328	462.46167	1188.19348	266.06305	590.17365	1151.75989	-289.06497	581.82123	946.43298	282.80371	535.84454	938.95209	330.10852	722.17023	941.92334	-224.38329	684.91553	923.77271	-286.52054	424.82779	101.42969	202.47273	463.08649	96.44918	96.53534	675.20471	42.31609	-117.9006	688.41907	51.11628	-16.91382	692.50623	1614.95435	59.26163	709.8512	1617.52209	-79.23074	695.15051	1792.24622	-5.33087
96	1.583	608.60034	1089.63831	123.66357	619.0733	1069.67383	-135.73758	416.24261	1073.19629	-0.78374	636.335	790.799	198.784	729.707	753.036	121.27	672.444	674.562	199.45	569.067	758.84	-176.679	659.437	727.672	-109.974	570.249	650.731	-155.045	621.88617	528.61224	184.57983	665.771	449.50729	140.6291	578.24878	452.2757	189.94167	548.06921	438.97546	-142.35123	591.10321	389.01056	-85.37843	526.39374	396.75909	-147.45367	339.29257	261.83752	83.51524	456.55368	171.91745	76.88843	420.77618	169.0757	176.0184	538.60046	59.32553	134.41695	437.61258	76.71856	-44.67991	607.68164	75.13268	-12.30162	593.37842	68.7859	-110.80261	719.77765	49.63948	-41.71411	633.82147	1388.8866	-19.94921	518.19208	1483.10376	178.86394	579.68231	1492.3363	-235.55916	509.24567	1285.84033	235.12175	625.96198	1255.82092	-251.10561	456.39783	1189.078	264.06458	593.02838	1152.67749	-289.08322	574.6662	946.92181	281.44778	527.94977	939.45068	328.23947	731.69916	947.71393	-222.2103	692.64398	928.33411	-283.51523	467.22903	92.28278	201.78957	503.99689	90.07555	95.36823	656.10626	42.09689	-118.12362	669.586	50.86823	-17.01391	692.09515	1616.2865	59.02126	708.23022	1618.58179	-78.82559	692.95575	1792.98108	-5.47619
97	1.6	607.87762	1090.68884	122.27451	618.59406	1068.89197	-138.1122	413.96741	1073.24951	-0.75386	640.655	793.851	196.666	734.371	758.667	118.358	679.565	678.52	196.601	561.39	757.722	-177.097	650.64	723.879	-110.188	559.271	649.636	-155.417	633.91754	527.70435	182.13773	683.50415	452.26901	139.73322	597.44794	448.79288	188.45866	532.38507	439.55505	-142.48677	575.7887	389.20929	-85.65297	510.25751	396.99246	-147.67802	369.30103	241.22046	84.22096	493.43384	161.06473	76.57615	459.19748	155.15944	176.13658	584.28369	55.33744	133.48772	418.66721	76.94257	-44.96015	588.37726	74.64948	-11.04171	574.06036	69.03747	-110.95462	700.95093	49.28849	-41.83063	632.83942	1388.99854	-20.07845	517.63251	1482.80188	178.63786	579.2431	1493.04834	-235.54439	504.73508	1286.11877	233.35013	627.29999	1256.96326	-251.83081	450.71304	1189.51733	262.13968	595.51154	1153.29016	-290.43066	567.19891	947.23669	280.26953	520.21667	939.01123	326.39505	741.05292	954.72388	-218.61577	705.66724	932.59296	-282.50378	512.00421	81.90065	200.86646	546.2699	83.2836	95.14597	637.06628	41.9357	-118.38514	650.57428	50.47874	-17.11728	690.42664	1616.46753	59.39425	707.13495	1619.06689	-78.63651	690.92438	1793.31592	-5.02905
98	1.617	605.54309	1090.26147	120.62789	614.8125	1067.94934	-139.2874	411.51007	1072.99207	-0.79608	642.472	795.831	194.975	736.754	763.028	116.312	683.96	681.403	194.411	552.731	756.55	-177.656	640.895	720.498	-110.461	547.809	648.566	-155.922	643.68237	525.97125	180.65326	699.25146	455.34586	137.65758	612.85669	444.70953	187.41226	516.83423	439.3801	-142.9054	560.29895	389.17377	-86.747	494.4819	397.22995	-147.88547	401.56735	218.51128	84.74643	532.23962	149.49417	76.63715	499.25064	140.71983	176.49466	631.76263	52.23286	133.73021	399.98239	77.13556	-45.3155	569.16699	74.16371	-9.62927	554.78278	69.0493	-111.21681	682.0152	48.9067	-41.93581	632.02374	1387.99561	-21.10272	516.54224	1481.10254	178.39081	578.51062	1493.31641	-236.10205	501.388	1285.45142	232.1964	628.10242	1257.62366	-252.18121	445.42609	1189.48206	260.28711	596.96661	1153.22131	-290.58499	561.763	946.37756	279.10989	513.24432	938.09656	324.10403	749.9574	962.07294	-217.226	715.05994	936.63629	-278.56876	556.8678	72.06673	200.86882	590.45386	76.72038	95.96174	618.10663	41.79149	-118.65975	631.31146	49.95323	-17.21669	689.84534	1616.21326	59.51715	706.36194	1619.13611	-78.6215	688.99316	1793.01404	-4.65875
99	1.633	603.93372	1089.13538	119.51635	612.93011	1065.28894	-140.17496	409.01688	1072.49585	-1.02181	643.033	796.615	193.954	738.053	765.771	115.387	686.517	682.933	193.049	545.001	754.707	-178.079	632.121	716.54	-110.69	537.377	646.893	-156.282	650.88312	524.22046	179.00328	713.61151	456.99216	136.64886	628.72064	439.93689	186.61079	501.43478	438.84308	-142.58572	544.94269	387.9043	-86.57836	478.96487	397.45175	-148.0213	436.25043	194.38336	84.87849	572.81891	137.93303	77.21144	540.70508	126.4874	177.15926	680.54291	50.62259	135.45329	381.53406	77.23193	-45.43572	550.00293	73.68589	-9.39322	536.00232	68.17527	-111.52926	662.91962	48.51307	-42.07316	630.02924	1386.55017	-21.54572	514.88611	1480.2179	178.16081	577.77747	1493.28943	-235.54468	497.69519	1284.10876	231.17772	628.44238	1257.93115	-252.84811	440.59073	1188.92004	258.543	598.43341	1153.52783	-291.02417	553.33038	944.83093	276.82901	507.52142	937.284	321.96112	757.67273	967.93225	-214.17039	724.18573	940.81653	-275.97409	604.51276	63.43764	202.02013	636.67926	71.03918	97.80803	599.2229	41.65376	-118.9546	611.94861	49.43161	-17.32701	689.04492	1615.38342	60.02588	706.5011	1618.51794	-77.81728	687.02917	1792.67383	-3.37511
100	1.65	601.01624	1087.03516	118.72551	610.71021	1063.77942	-140.84731	406.69342	1071.72485	-1.37992	641.842	795.945	192.979	737.874	766.695	115.036	686.851	682.86	191.963	536.927	752.996	-179.03	622.96	712.645	-111.519	526.454	645.45	-157.096	658.34808	519.30975	176.13972	724.81531	457.26785	135.18399	642.04926	433.70764	184.92302	486.52628	438.84958	-142.71501	529.39087	387.53299	-86.97312	463.66592	397.66428	-148.12589	473.50674	169.79311	84.60143	614.89154	127.18807	78.33787	583.3905	113.17432	178.20348	729.98334	51.04027	138.67064	363.14011	77.24314	-45.12804	530.56433	73.1599	-12.97877	518.30786	65.46133	-111.78403	643.74939	48.17178	-42.23812	629.29065	1385.20557	-21.35299	513.53296	1478.31506	178.42934	576.53149	1492.26904	-234.90042	495.70804	1282.66785	230.37895	628.45825	1257.62744	-253.09518	436.31451	1187.81458	257.00528	599.5141	1152.71399	-291.72446	550.34235	943.79071	275.9657	502.66211	935.67615	319.84976	765.40375	974.44733	-211.40816	732.78394	945.18665	-273.57462	653.9472	57.63544	205.41045	684.36469	66.8582	100.60151	580.41412	41.59339	-119.27572	592.7583	49.09647	-17.4972	688.03149	1614.46716	60.66189	705.08032	1618.02173	-77.62988	684.91095	1791.70532	-2.41395
101	1.667	599.83228	1085.58435	118.70938	608.72266	1061.8092	-140.80472	404.72195	1070.57996	-1.69959	639.708	794.036	193.001	736.962	765.854	116.188	685.32	681.195	191.787	529.319	751.088	-179.403	614.175	708.361	-111.864	515.835	643.883	-157.444	660.08051	514.17426	174.75328	735.98773	457.22131	134.66336	654.72516	426.49002	183.20798	471.52008	438.90488	-142.64053	514.42877	387.33813	-87.9257	448.58313	397.89874	-148.28763	513.23511	145.89941	84.11	657.98535	118.08745	79.92436	627.02417	101.50777	179.63803	779.35394	54.00582	142.96974	344.55746	77.33395	-44.58569	510.24771	72.37608	-23.18033	502.04138	60.2068	-111.93984	624.66107	47.93847	-42.4145	628.68726	1383.05261	-20.98833	513.60254	1476.32776	178.74011	575.63556	1490.76514	-234.41196	492.93958	1280.60193	229.78194	628.44366	1257.07227	-252.86676	432.73376	1186.19006	255.79489	601.36969	1151.29175	-291.82913	545.88928	941.45392	274.55984	497.75336	933.9071	317.96359	771.41754	980.39471	-208.95395	741.46906	948.33276	-270.10117	700.21472	53.76126	208.58646	732.60919	64.82704	104.08163	561.64447	41.67629	-119.61717	573.92383	49.02352	-17.76653	687.46826	1612.95374	61.44924	704.90424	1617.29456	-76.69482	682.78009	1790.31372	-1.32477
102	1.683	597.13495	1082.32458	118.09125	606.7641	1059.22961	-140.85529	403.16708	1068.99988	-1.84906	636.442	790.438	192.339	734.985	763.299	116.804	682.554	677.802	190.901	522.156	748.83	-180.33	605.909	704.147	-112.679	506.09	641.999	-158.281	667.72473	505.81097	172.25211	744.78455	456.88412	132.74461	665.75043	418.49612	181.69916	457.73215	439.06577	-142.95654	499.54135	386.84882	-87.28205	433.67456	398.18298	-148.57739	554.90143	123.86417	83.7868	701.39655	111.40024	81.76612	671.22119	92.2419	181.38893	827.86884	60.0686	147.54765	325.6842	77.66112	-44.10319	488.96622	71.27302	-38.71493	486.582	53.32677	-112.06252	605.74719	47.8074	-42.63551	628.29175	1380.55103	-20.66708	512.86298	1473.68542	179.41171	575.52966	1489.12085	-233.88638	490.91867	1278.59045	229.15067	626.49115	1256.12952	-251.98598	429.93243	1184.07751	254.98907	602.04016	1149.96179	-292.22235	543.354	939.30829	273.09158	494.33521	931.04553	316.61884	776.67224	985.5318	-206.82899	748.05457	951.96057	-267.56894	748.66248	51.8175	212.41901	780.52087	65.68566	107.75923	542.73431	41.79991	-119.95808	555.39276	49.12819	-18.13222	685.66473	1611.46973	62.4661	704.99445	1616.14148	-75.33621	680.54431	1787.64539	-0.04241
103	1.7	596.2962	1078.93994	118.67673	605.72449	1055.85962	-140.98	401.97638	1066.97925	-1.81714	633.061	785.563	191.522	732.503	758.982	116.972	678.895	672.824	189.445	515.219	746.359	-180.764	597.685	699.498	-113.005	496.318	639.992	-158.718	670.32599	496.89066	169.93857	752.31348	455.4917	130.41507	677.92816	409.96381	180.11127	443.28128	438.81522	-143.92108	484.67908	386.2677	-88.03171	418.86444	398.53046	-149.01889	597.60974	104.64214	84.15984	744.19073	107.72676	83.59338	715.45642	86.09475	183.336	874.65869	69.76272	151.39684	306.67523	78.20632	-43.76003	468.06665	70.39124	-51.39619	469.97339	48.22646	-112.19035	586.95667	47.70139	-42.95762	628.23602	1377.80872	-19.5984	512.51678	1470.76868	179.75192	575.17578	1487.08362	-232.83876	488.77902	1275.4679	229.39824	627.53552	1253.71277	-252.25774	427.867	1181.47888	254.58673	602.67963	1147.92908	-292.55417	540.53247	936.62274	271.62204	491.19116	927.98669	314.76782	780.29156	988.93774	-204.1646	753.86945	954.36554	-264.59152	795.80011	54.63384	215.29655	827.1839	70.16802	110.97808	523.49384	41.75249	-120.22785	536.92902	49.24505	-18.53447	687.32452	1609.27576	63.86377	703.89282	1614.54797	-74.28069	677.7453	1786.56396	1.52062
